<?xml version="1.0" encoding="UTF-8"?>
<svg id="_레이어_1" data-name="레이어_1" xmlns="http://www.w3.org/2000/svg" viewBox="0 0 24.04 28">
  <path d="M12.04,14c-3.87,0-7-3.13-7-7S8.17,0,12.04,0s7,3.13,7,7-3.13,7-7,7ZM12.04,2c-2.76,0-5,2.24-5,5s2.24,5,5,5,5-2.24,5-5-2.24-5-5-5ZM21.04,28H3.04c-.96,0-1.86-.42-2.46-1.17-.52-.65-.7-1.51-.5-2.32,1.33-5.01,6.23-8.51,11.96-8.51s10.63,3.5,11.92,8.51c.2.81.02,1.67-.5,2.32-.59.74-1.48,1.17-2.42,1.17ZM12.04,18c-4.74,0-8.93,3-10,7-.05.21,0,.43.14.59.21.26.53.41.86.41h18c.34,0,.66-.14.88-.4.14-.17.18-.39.12-.6-1.07-4-5.26-7-10-7Z"/>
</svg>