<?xml version="1.0" standalone="no"?>
<!DOCTYPE svg PUBLIC "-//W3C//DTD SVG 20010904//EN"
 "http://www.w3.org/TR/2001/REC-SVG-20010904/DTD/svg10.dtd">
<svg version="1.0" xmlns="http://www.w3.org/2000/svg"
 width="4096.000000pt" height="4096.000000pt" viewBox="0 0 4096.000000 4096.000000"
 preserveAspectRatio="xMidYMid meet">
<metadata>
Created by potrace 1.16, written by Peter Selinger 2001-2019
</metadata>
<g transform="translate(0.000000,4096.000000) scale(0.100000,-0.100000)"
fill="#000000" stroke="none">
<path d="M20336 36859 c-82 -12 -166 -34 -241 -64 -86 -35 -19562 -10285
-19646 -10340 -195 -128 -352 -345 -421 -580 -21 -72 -23 -100 -23 -275 0
-175 2 -203 23 -275 69 -235 226 -452 421 -580 56 -37 19281 -10161 19551
-10296 281 -140 578 -157 854 -48 94 37 19562 10281 19657 10344 195 128 352
345 421 580 21 72 23 100 23 275 0 175 -2 203 -23 275 -69 235 -226 452 -421
580 -84 56 -19556 10304 -19644 10339 -166 66 -359 90 -531 65z m8767 -6723
c4734 -2491 8607 -4532 8607 -4536 0 -4 -2208 -1169 -4907 -2590 -2700 -1421
-6566 -3457 -8593 -4524 -2027 -1067 -3697 -1944 -3711 -1949 -23 -9 -386 179
-3565 1853 -1946 1025 -5193 2734 -7214 3798 -2021 1064 -4304 2265 -5072
2670 -769 405 -1398 739 -1398 742 0 10 17223 9071 17236 9068 6 -2 3883
-2041 8617 -4532z"/>
<path d="M860 20483 c-402 -63 -727 -342 -840 -722 -18 -60 -20 -97 -20 -299
0 -262 6 -294 86 -457 81 -167 227 -326 380 -417 99 -58 19433 -10234 19569
-10299 163 -78 238 -94 445 -94 209 0 282 16 455 99 239 115 19505 10261
19581 10312 91 60 219 189 277 277 55 83 112 209 139 307 20 76 23 106 22 275
0 178 -2 196 -28 279 -60 198 -187 389 -339 511 -94 76 -264 164 -376 194
-229 63 -496 41 -704 -57 -45 -21 -932 -487 -1972 -1034 -1039 -548 -4016
-2115 -6615 -3483 -2599 -1368 -6011 -3164 -7582 -3992 l-2858 -1504 -1622
854 c-893 470 -3407 1794 -5588 2942 -6098 3210 -7814 4114 -9910 5217 -2004
1055 -2015 1061 -2181 1088 -61 9 -265 12 -319 3z"/>
<path d="M880 14344 c-70 -9 -206 -47 -279 -78 -271 -114 -487 -353 -575 -634
-25 -79 -26 -94 -26 -312 0 -219 1 -233 26 -312 70 -222 215 -415 405 -540
105 -69 19565 -10311 19674 -10355 230 -92 520 -92 750 0 101 41 19542 10271
19650 10341 150 97 298 269 370 431 59 133 77 219 83 384 5 170 -4 247 -46
371 -95 287 -312 517 -595 629 -131 52 -261 74 -417 68 -193 -6 -270 -29 -505
-147 -104 -53 -1425 -747 -2935 -1542 -8754 -4610 -15972 -8408 -15980 -8408
-5 0 -3151 1654 -6992 3676 -3841 2022 -8088 4258 -9440 4970 -1351 711 -2498
1314 -2550 1340 -108 54 -175 79 -273 100 -70 16 -279 26 -345 18z"/>
</g>
</svg>
