<?xml version="1.0" encoding="utf-8"?>
<!-- Svg Vector Icons : http://www.onlinewebfonts.com/icon -->
<!DOCTYPE svg PUBLIC "-//W3C//DTD SVG 1.1//EN" "http://www.w3.org/Graphics/SVG/1.1/DTD/svg11.dtd">
<svg fill="#ffffff" version="1.1" xmlns="http://www.w3.org/2000/svg" xmlns:xlink="http://www.w3.org/1999/xlink" x="0px" y="0px" viewBox="0 0 1000 1000" enable-background="new 0 0 1000 1000" xml:space="preserve">
<metadata> Svg Vector Icons : http://www.onlinewebfonts.com/icon </metadata>
<g><path d="M898.2,836.8H101.9C51.2,836.8,10,795.8,10,745V255c0-50.8,41.2-91.8,91.9-91.8h796.3c50.7,0,91.8,41.1,91.8,91.8v490C990,795.8,948.8,836.8,898.2,836.8z M926.9,743.4V256.6L642.9,500L926.9,743.4z M500,561.3l393-336.8H107L500,561.3z M893,775.7l-285.8-245L500,622.5l-107.2-91.8L107,775.7H893z M357.1,500L73.1,256.6v486.7L357.1,500z"/></g>
</svg>